Coordinates
version=1
nRows=38
nColumns=12
inDegrees=yes

Units are S.I. units (second, meters, Newtons, ...)
Angles are in degrees

endheader
time	SC_y	SC_z	SC_x	AC_y	AC_z	AC_x	GH_y	GH_z	GH_yy	EL_x	PS_y
       0.0              -12.53        -0.1227          22.27          64.51          -17.8        -0.6676         -80.09           69.1         -141.9          44.44          48.66
    0.0106              -12.53         -0.122          22.27          64.51          -17.8        -0.6694         -80.09           69.1         -141.9          44.44          48.66
   0.02121              -12.53        -0.1212          22.27          64.51         -17.79        -0.6713          -80.1           69.1         -141.8          44.44          48.66
   0.03181              -12.53        -0.1204          22.28          64.51         -17.79        -0.6733          -80.1           69.1         -141.8          44.45          48.67
   0.04241              -12.54        -0.1195          22.28           64.5         -17.79        -0.6755         -80.11           69.1         -141.8          44.45          48.67
   0.05301              -12.54        -0.1186          22.29           64.5         -17.78        -0.6778         -80.11           69.1         -141.7          44.45          48.67
   0.06362              -12.54        -0.1176          22.29           64.5         -17.78        -0.6802         -80.12          69.11         -141.7          44.46          48.67
   0.07422              -12.54        -0.1165          22.29           64.5         -17.77        -0.6828         -80.12          69.11         -141.6          44.46          48.67
   0.08482              -12.54        -0.1154           22.3           64.5         -17.77        -0.6856         -80.13          69.11         -141.6          44.47          48.68
   0.09543              -12.54        -0.1142           22.3           64.5         -17.76        -0.6887         -80.14          69.11         -141.5          44.47          48.68
     0.106              -12.55        -0.1129          22.31           64.5         -17.76        -0.6919         -80.15          69.11         -141.5          44.48          48.68
    0.1166              -12.55        -0.1114          22.32          64.49         -17.75        -0.6954         -80.16          69.12         -141.4          44.49          48.69
    0.1272              -12.55        -0.1099          22.32          64.49         -17.74        -0.6991         -80.16          69.12         -141.4          44.49          48.69
    0.1378              -12.55        -0.1083          22.33          64.49         -17.74        -0.7032         -80.17          69.12         -141.3           44.5          48.69
    0.1484              -12.56        -0.1065          22.34          64.49         -17.73        -0.7076         -80.19          69.13         -141.2          44.51           48.7
     0.159              -12.56        -0.1046          22.34          64.48         -17.72        -0.7123          -80.2          69.13         -141.1          44.51           48.7
    0.1696              -12.56        -0.1025          22.35          64.48         -17.71        -0.7175         -80.21          69.13         -141.1          44.52          48.71
    0.1802              -12.57        -0.1002          22.36          64.48          -17.7        -0.7231         -80.22          69.14         -141.0          44.53          48.71
    0.1909              -12.57       -0.09766          22.37          64.47         -17.69        -0.7292         -80.24          69.14         -140.9          44.54          48.72
    0.2015              -12.58       -0.09492          22.39          64.47         -17.68         -0.736         -80.26          69.15         -140.8          44.56          48.72
    0.2121              -12.58       -0.09192           22.4          64.47         -17.67        -0.7434         -80.27          69.15         -140.6          44.57          48.73
    0.2227              -12.59       -0.08861          22.41          64.46         -17.65        -0.7515         -80.29          69.16         -140.5          44.58          48.74
    0.2333              -12.59       -0.08495          22.43          64.46         -17.64        -0.7605         -80.32          69.17         -140.3           44.6          48.75
    0.2439               -12.6        -0.0809          22.44          64.45         -17.62        -0.7704         -80.34          69.17         -140.2          44.62          48.75
    0.2545              -12.61        -0.0764          22.46          64.45          -17.6        -0.7815         -80.37          69.18         -140.0          44.64          48.76
    0.2651              -12.62       -0.07138          22.48          64.44         -17.58        -0.7938          -80.4          69.19         -139.8          44.66          48.78
    0.2757              -12.63       -0.06575          22.51          64.43         -17.55        -0.8077         -80.43           69.2         -139.6          44.68          48.79
    0.2863              -12.64       -0.05942          22.54          64.42         -17.52        -0.8232         -80.47          69.21         -139.3          44.71           48.8
    0.2969              -12.65       -0.05226          22.57          64.41         -17.49        -0.8408         -80.52          69.23         -139.0          44.74          48.82
    0.3075              -12.66       -0.04414           22.6           64.4         -17.46        -0.8608         -80.57          69.24         -138.7          44.77          48.84
    0.3181              -12.68       -0.03487          22.64          64.39         -17.42        -0.8835         -80.62          69.26         -138.3          44.81          48.86
    0.3287               -12.7       -0.02423          22.68          64.37         -17.37        -0.9097         -80.69          69.28         -137.9          44.86          48.88
    0.3393              -12.72       -0.01195          22.74          64.36         -17.32        -0.9399         -80.76           69.3         -137.4          44.91          48.91
    0.3499              -12.74       0.002326           22.8          64.34         -17.26         -0.975         -80.85          69.33         -136.8          44.97          48.94
    0.3605              -12.77        0.01903          22.87          64.31         -17.18         -1.016         -80.95          69.36         -136.1          45.04          48.98
    0.3711              -12.81        0.03871          22.95          64.29          -17.1         -1.064         -81.07          69.39         -135.3          45.13          49.02
    0.3817              -12.84        0.06211          23.05          64.25          -17.0         -1.122         -81.22          69.44         -134.4          45.23          49.07
    0.3923              -12.89        0.09015          23.17          64.22         -16.87         -1.191         -81.39          69.49         -133.2          45.35          49.14
